# xmcd
#
# Track frame offsets: 
#        150
#        14368
#        42187
#        58214
#        72910
#        92364
#        107579
#        126004
#        143822
#        157861
#        171528
#        188715
#        203427
#        219182
#        234830
#
# Disc length: 3422 seconds
#
# Revision: 0
# Processed by: cddbd v1.5.2PL0 Copyright (c) Steve Scherf et al.
# Submitted via: ExactAudioCopy v0.99pb3
#
DISCID=bf0d5c0f
DTITLE=Eugene 'Hideaway' Bridges - Rock And A Hard Place
DYEAR=2011
DGENRE=Blues
TTITLE0=I Can Never Forget
TTITLE1=Rock And A Hard Place
TTITLE2=She's Out Of My Life
TTITLE3=Baby I Like
TTITLE4=It's Gotta Be The Last Time
TTITLE5=How Long
TTITLE6=It Will Not Stop
TTITLE7=Dance with You
TTITLE8=I'm Holding On
TTITLE9=45 Jump
TTITLE10=It Had To Be You
TTITLE11=Long Way From Texas
TTITLE12=Won't Let Me Go
TTITLE13=Mom And Daddy's Place
TTITLE14=BB
EXTD=
EXTT0=
EXTT1=
EXTT2=
EXTT3=
EXTT4=
EXTT5=
EXTT6=
EXTT7=
EXTT8=
EXTT9=
EXTT10=
EXTT11=
EXTT12=
EXTT13=
EXTT14=
PLAYORDER=
